<svg width="130" height="22" viewBox="0 0 130 22" fill="none" xmlns="http://www.w3.org/2000/svg">
<path d="M12.5824 3.15733L14.1955 6.4103C14.4155 6.86313 15.0021 7.29747 15.497 7.38064L18.4209 7.87044C20.2907 8.18464 20.7306 9.55237 19.3833 10.9016L17.1102 13.1935C16.7252 13.5816 16.5144 14.3302 16.6336 14.8662L17.2843 17.7033C17.7976 19.9489 16.6153 20.8176 14.6446 19.644L11.9041 18.0082C11.4092 17.7125 10.5934 17.7125 10.0893 18.0082L7.34878 19.644C5.38733 20.8176 4.19579 19.9397 4.70907 17.7033L5.35983 14.8662C5.47898 14.3302 5.26817 13.5816 4.88322 13.1935L2.61013 10.9016C1.27195 9.55237 1.70273 8.18464 3.57253 7.87044L6.49637 7.38064C6.98215 7.29747 7.56875 6.86313 7.78873 6.4103L9.40188 3.15733C10.2818 1.39222 11.7116 1.39222 12.5824 3.15733Z" fill="#F1AD18"/>
<path d="M39.5824 3.15733L41.1955 6.4103C41.4155 6.86313 42.0021 7.29747 42.497 7.38064L45.4209 7.87044C47.2907 8.18464 47.7306 9.55237 46.3833 10.9016L44.1102 13.1935C43.7252 13.5816 43.5144 14.3302 43.6336 14.8662L44.2843 17.7033C44.7976 19.9489 43.6153 20.8176 41.6446 19.644L38.9041 18.0082C38.4092 17.7125 37.5934 17.7125 37.0893 18.0082L34.3488 19.644C32.3873 20.8176 31.1958 19.9397 31.7091 17.7033L32.3598 14.8662C32.479 14.3302 32.2682 13.5816 31.8832 13.1935L29.6101 10.9016C28.2719 9.55237 28.7027 8.18464 30.5725 7.87044L33.4964 7.38064C33.9822 7.29747 34.5688 6.86313 34.7887 6.4103L36.4019 3.15733C37.2818 1.39222 38.7116 1.39222 39.5824 3.15733Z" fill="#F1AD18"/>
<path d="M66.5824 3.15733L68.1955 6.4103C68.4155 6.86313 69.0021 7.29747 69.497 7.38064L72.4209 7.87044C74.2907 8.18464 74.7306 9.55237 73.3833 10.9016L71.1102 13.1935C70.7252 13.5816 70.5144 14.3302 70.6336 14.8662L71.2843 17.7033C71.7976 19.9489 70.6153 20.8176 68.6446 19.644L65.9041 18.0082C65.4092 17.7125 64.5934 17.7125 64.0893 18.0082L61.3488 19.644C59.3873 20.8176 58.1958 19.9397 58.7091 17.7033L59.3598 14.8662C59.479 14.3302 59.2682 13.5816 58.8832 13.1935L56.6101 10.9016C55.2719 9.55237 55.7027 8.18464 57.5725 7.87044L60.4964 7.38064C60.9822 7.29747 61.5688 6.86313 61.7887 6.4103L63.4019 3.15733C64.2818 1.39222 65.7116 1.39222 66.5824 3.15733Z" fill="#F1AD18"/>
<path d="M93.5824 3.15733L95.1955 6.4103C95.4155 6.86313 96.0021 7.29747 96.497 7.38064L99.4209 7.87044C101.291 8.18464 101.731 9.55237 100.383 10.9016L98.1102 13.1935C97.7252 13.5816 97.5144 14.3302 97.6336 14.8662L98.2843 17.7033C98.7976 19.9489 97.6153 20.8176 95.6446 19.644L92.9041 18.0082C92.4092 17.7125 91.5934 17.7125 91.0893 18.0082L88.3488 19.644C86.3873 20.8176 85.1958 19.9397 85.7091 17.7033L86.3598 14.8662C86.479 14.3302 86.2682 13.5816 85.8832 13.1935L83.6101 10.9016C82.2719 9.55237 82.7027 8.18464 84.5725 7.87044L87.4964 7.38064C87.9822 7.29747 88.5688 6.86313 88.7887 6.4103L90.4019 3.15733C91.2818 1.39222 92.7116 1.39222 93.5824 3.15733Z" fill="#F1AD18"/>
<path d="M120.582 3.15733L122.196 6.4103C122.415 6.86313 123.002 7.29747 123.497 7.38064L126.421 7.87044C128.291 8.18464 128.731 9.55237 127.383 10.9016L125.11 13.1935C124.725 13.5816 124.514 14.3302 124.634 14.8662L125.284 17.7033C125.798 19.9489 124.615 20.8176 122.645 19.644L119.904 18.0082C119.409 17.7125 118.593 17.7125 118.089 18.0082L115.349 19.644C113.387 20.8176 112.196 19.9397 112.709 17.7033L113.36 14.8662C113.479 14.3302 113.268 13.5816 112.883 13.1935L110.61 10.9016C109.272 9.55237 109.703 8.18464 111.573 7.87044L114.496 7.38064C114.982 7.29747 115.569 6.86313 115.789 6.4103L117.402 3.15733C118.282 1.39222 119.712 1.39222 120.582 3.15733Z" fill="#F1AD18"/>
</svg>
