<svg width="180" height="91" viewBox="0 0 180 91" fill="none" xmlns="http://www.w3.org/2000/svg">
<path d="M23.3818 47.0515L23.6251 46.6087C25.7199 42.8084 27.4473 38.8208 30.868 35.9646C32.3229 34.7505 35.8628 34.0036 35.167 37.6749C34.0454 41.7963 28.7635 46.2559 24.0022 46.9639L23.3818 47.0515ZM32.3837 52.657C34.0576 52.7275 38.9089 50.9296 38.8529 48.4334C38.6023 47.1172 37.0282 47.3118 36.1207 47.5819C33.7997 48.2728 31.7706 50.8663 30.7488 52.5159C30.014 53.7031 28.9897 54.5668 27.6614 55.0534C25.5934 55.8052 23.4353 55.8855 21.4574 55.5522C20.1971 55.3381 19.7738 55.2262 17.5622 54.6861C19.9635 52.7421 21.4841 49.9588 23.1969 47.4724C26.1262 47.0953 31.8874 45.5625 35.1135 39.6651C36.1791 37.7163 36.5465 34.9476 33.9359 34.4878C32.4178 34.2201 31.087 34.877 29.6223 35.8964C25.462 38.7892 23.2772 43.0566 21.1435 47.3021C20.2239 47.4237 19.1096 47.358 18.4162 47.2169C17.988 47.1318 16.5745 46.9323 14.594 45.6501C12.6647 44.4044 10.9227 41.3487 11.874 37.6092L11.3558 37.816C10.7427 39.5337 11.1174 41.8936 12.1343 43.6916C13.0759 45.3557 14.2486 46.2729 16.2971 47.0709C16.9005 47.3045 17.7836 47.6889 20.3771 47.7643L20.9975 47.7351L20.6837 48.3312C19.9708 49.6791 19.348 50.9053 18.4794 52.1972C18.3846 52.3358 18.2386 52.5889 18.1218 52.7421C17.6279 53.3966 17.2338 53.8443 16.6791 54.4622C13.9931 53.7153 10.7013 53.2774 8.74037 54.0146C8.74037 54.0146 7.39497 54.4111 7.34388 55.5303C7.27818 56.9949 9.63813 57.3307 9.63813 57.3307C12.0711 57.7418 14.3191 56.8733 16.7204 55.3064C19.0244 56.0972 21.815 57.9 24.6591 57.5204C25.2868 57.4377 26.0216 57.2796 26.6103 56.973C27.1188 56.7103 27.6249 56.4694 28.0652 56.1117C28.8924 55.4378 29.9702 54.3235 30.5176 53.4088C30.177 54.3965 30.2281 55.1215 30.4057 55.7784C30.576 56.4037 31.1332 57.0119 31.9531 57.1993C34.9286 57.8781 37.2374 55.596 38.9381 53.2774L38.6218 53.3017C37.6024 54.6861 35.0867 57.5131 32.4275 56.8465C30.7707 56.0242 31.7463 53.9148 32.3837 52.657ZM32.5929 52.2531C33.3545 50.9223 34.8021 48.6743 36.7533 47.7716C37.3104 47.5162 37.9576 47.6816 38.1498 48.195C38.3079 48.6134 38.3736 49.0927 37.5196 49.988C36.999 50.5355 34.7802 52.129 32.5929 52.2531ZM15.2412 55.5084C14.3751 56.029 11.8959 57.2455 9.94712 56.9681C9.93009 56.9657 7.77207 56.7224 7.64555 55.7687C7.49472 54.6301 8.77201 54.2749 9.59191 54.107C11.2731 53.7688 14.65 54.3965 16.0489 55.0169L15.9419 55.0826L15.2412 55.5084Z" fill="#231F20"/>
<path d="M157.804 57.041V42.7402L172.592 57.5276L172.657 35.6019L169.541 35.6433V50.0341L154.753 35.2467L154.819 57.0629L157.804 57.041Z" fill="#231F20"/>
<path d="M104 57.041H107.372V35.6019H104V57.041Z" fill="#231F20"/>
<path d="M131.786 57.041H135.158V35.6019H131.786V57.041Z" fill="#231F20"/>
<path d="M83.5727 35.3903H71.5005V57.041H84.1372V54.1774H74.8847V47.5209H83.0594V44.6987H74.8847V38.2684H83.5727V35.3903Z" fill="#231F20"/>
<path d="M151.413 35.3903H139.341V57.041H151.977V54.1774H142.725V47.5209H150.899V44.6987H142.725V38.2684H151.413V35.3903Z" fill="#231F20"/>
<path d="M47.7818 57.0143L49.1735 44.1465L56.6012 57.0605L63.9974 44.2122L65.372 57.0411L68.5957 57.0143L65.6567 35.1106L56.6305 51.0269L47.6407 35.13L44.6531 57.0143H47.7818Z" fill="#231F20"/>
<path d="M95.363 47.7448C96.1537 47.4626 96.9225 46.9468 97.7886 45.8544C98.6572 44.7644 99.229 43.3412 99.229 41.8206C99.229 39.8791 98.409 38.2685 97.0271 37.0836C95.7742 36.018 93.6672 35.546 90.845 35.546H87.0715V56.9851H90.2854V48.4795H92.0055L97.9103 56.9851H101.715L95.363 47.7448ZM91.3584 45.9687H90.3365L90.3438 38.2101H91.4873C94.4482 38.2101 95.9274 39.5652 95.9274 42.132C95.9274 44.6136 94.402 45.9687 91.3584 45.9687Z" fill="#231F20"/>
<path d="M124.502 38.3658C123.412 37.3658 122.198 36.6578 120.86 36.2418C119.615 35.816 117.916 35.6019 115.766 35.6019H111.279V57.041H115.712C117.88 57.041 119.554 56.8415 120.736 56.4425C122.001 56.0459 123.317 55.4134 124.471 54.3964C126.77 52.36 128.037 49.6157 128.037 46.3215C128.037 43.0346 126.707 40.3827 124.502 38.3658ZM122.203 51.9951C121.422 52.6982 120.551 53.214 119.588 53.5351C118.622 53.8417 117.413 53.995 115.958 53.995H114.496V38.648H115.958C118.719 38.648 120.812 39.3 122.23 40.6041C123.807 42.0663 124.724 43.9713 124.724 46.3215C124.724 48.6522 123.797 50.5426 122.203 51.9951Z" fill="#231F20"/>
</svg>
